# Blender 3.3.1
# www.blender.org
mtllib portalstructure.mtl
o externo
v -0.096966 1.000000 -0.500000
v -0.096966 -1.000000 -0.500000
v -0.096966 1.000000 0.500000
v -0.096966 -1.000000 0.500000
v -7.710372 5.021557 -6.207636
v -7.710372 -1.000000 -6.207636
v -7.710372 5.021557 6.251045
v -7.710372 -1.000000 6.251045
v -0.096966 5.021557 -6.207636
v -0.096966 -1.000000 -6.207636
v -0.096966 5.021557 6.251045
v -0.096966 -1.000000 6.251045
vn -0.0000 1.0000 -0.0000
vn -0.0000 -0.0000 1.0000
vn -1.0000 -0.0000 -0.0000
vn -0.0000 -0.0000 -1.0000
vn 1.0000 -0.0000 -0.0000
vt 0.545770 0.579230
vt 0.454230 0.579230
vt 0.545770 0.670770
vt 0.454230 0.670770
vt 0.875000 0.500000
vt 0.625000 0.250000
vt 0.375000 0.250000
vt 0.875000 0.750000
vt 0.625000 1.000000
vt 0.625000 0.000000
vt 0.375000 1.000000
vt 0.375000 0.000000
vt 0.625000 0.500000
vt 0.375000 0.500000
vt 0.625000 0.750000
vt 0.375000 0.750000
s 0
usemtl outside
f 9/13/1 5/5/1 7/8/1 11/15/1
f 12/16/2 11/15/2 7/9/2 8/11/2
f 8/12/3 7/10/3 5/6/3 6/7/3
f 6/7/4 5/6/4 9/13/4 10/14/4
f 1/1/5 2/2/5 10/14/5 9/13/5
f 4/4/5 3/3/5 11/15/5 12/16/5
f 3/3/5 1/1/5 9/13/5 11/15/5
o interno
v -0.133608 1.000000 -0.500000
v -0.133608 -1.000000 -0.500000
v -0.133608 1.000000 0.500000
v -0.133608 -1.000000 0.500000
v -7.385248 4.872180 -5.988584
v -7.385248 -1.000000 -5.988584
v -7.385248 4.872180 5.988584
v -7.385248 -1.000000 5.988584
v -0.133608 4.872180 -5.988584
v -0.133608 -1.000000 -5.988584
v -0.133608 4.872180 5.988584
v -0.133608 -1.000000 5.988584
v 0.021311 1.000000 -0.500000
v 0.021311 -1.000000 -0.500000
v 0.021311 1.000000 0.500000
v 0.021311 -1.000000 0.500000
vn -0.0000 -1.0000 -0.0000
vn -0.0000 -0.0000 -1.0000
vn 1.0000 -0.0000 -0.0000
vn -0.0000 1.0000 -0.0000
vn -0.0000 -0.0000 1.0000
vn -1.0000 -0.0000 -0.0000
vt 0.545770 0.579230
vt 0.454230 0.579230
vt 0.545770 0.670770
vt 0.454230 0.670770
vt 0.875000 0.500000
vt 0.625000 0.250000
vt 0.125000 0.500000
vt 0.375000 0.250000
vt 0.875000 0.750000
vt 0.625000 1.000000
vt 0.625000 0.000000
vt 0.375000 1.000000
vt 0.375000 0.000000
vt 0.125000 0.750000
vt 0.625000 0.500000
vt 0.375000 0.500000
vt 0.625000 0.750000
vt 0.375000 0.750000
vt 0.545770 0.579230
vt 0.454230 0.579230
vt 0.545770 0.670770
vt 0.454230 0.670770
s 0
usemtl inside
f 21/31/6 23/33/6 19/25/6 17/21/6
f 24/34/7 20/28/7 19/26/7 23/33/7
f 20/29/8 18/24/8 17/22/8 19/27/8
f 18/23/9 20/30/9 24/34/9 22/32/9
f 16/20/9 28/38/9 26/36/9 14/18/9
f 18/24/10 22/32/10 21/31/10 17/22/10
f 13/17/11 21/31/11 22/32/11 14/18/11
f 16/20/11 24/34/11 23/33/11 15/19/11
f 15/19/11 23/33/11 21/31/11 13/17/11
f 14/18/9 22/32/9 24/34/9 16/20/9
f 15/19/7 27/37/7 28/38/7 16/20/7
f 13/17/6 25/35/6 27/37/6 15/19/6
f 14/18/10 26/36/10 25/35/10 13/17/10
